
<svg version="1.0" xmlns="http://www.w3.org/2000/svg"
 width="100" height="100" viewBox="0 0 813.000000 307.000000"
 preserveAspectRatio="xMidYMid meet">

<g transform="translate(0.000000,307.000000) scale(0.100000,-0.100000)"
fill="white" stroke="none">
<path d="M1156 2589 c-123 -30 -252 -128 -318 -240 -68 -114 -46 -161 83 -173
105 -11 106 -11 44 -68 -70 -63 -121 -155 -141 -250 -28 -132 0 -228 67 -228
31 0 50 15 107 86 35 43 54 56 114 79 87 33 239 45 330 26 l56 -12 21 -79 c38
-139 61 -280 71 -439 6 -84 8 -161 5 -170 -3 -10 -27 -25 -53 -34 -70 -25
-190 -105 -259 -173 -59 -58 -147 -181 -172 -241 -12 -30 -46 -53 -78 -53 -9
0 -47 14 -84 31 -82 38 -112 34 -136 -16 -15 -31 -15 -36 1 -60 11 -16 48 -41
91 -61 83 -38 151 -44 212 -19 45 19 91 19 136 0 46 -19 128 -19 174 0 45 19
91 19 136 0 20 -8 58 -15 85 -15 27 0 66 7 85 15 46 19 85 19 130 0 46 -19
144 -19 177 0 33 19 89 19 133 0 46 -19 128 -19 174 0 45 19 81 19 126 0 47
-20 128 -19 175 1 48 20 95 20 124 0 51 -36 128 -7 128 48 0 64 -110 123 -211
112 l-55 -5 -23 47 c-85 176 -290 354 -470 408 l-57 17 -37 151 c-20 84 -58
216 -83 295 -25 79 -42 146 -39 150 13 11 120 -116 164 -195 24 -44 55 -98 68
-121 28 -50 63 -64 102 -42 16 9 42 46 66 93 l40 79 0 121 c0 121 0 123 -38
199 -47 95 -126 175 -215 219 -60 30 -63 32 -41 42 13 5 80 10 149 10 108 0
143 -4 257 -33 152 -37 188 -37 216 0 18 26 19 29 2 85 -49 169 -167 307 -323
377 -216 97 -490 40 -653 -136 l-27 -29 -28 36 c-38 48 -130 112 -207 143 -49
21 -82 27 -162 29 -55 2 -117 -1 -139 -7z m182 -139 c102 -19 200 -84 247
-163 23 -41 24 -43 8 -92 -9 -27 -17 -51 -19 -53 -1 -2 -27 11 -58 28 -59 34
-142 60 -190 60 -16 0 -58 11 -95 24 -36 13 -102 31 -146 41 -44 10 -84 21
-88 25 -11 9 64 71 121 99 73 37 141 46 220 31z m893 -4 c92 -20 143 -48 216
-121 88 -89 85 -98 -24 -73 -200 45 -421 17 -601 -76 -48 -25 -91 -46 -94 -46
-11 0 9 57 38 110 53 97 160 175 282 204 74 18 103 19 183 2z m-815 -385 c44
-20 134 -95 134 -112 0 -4 -26 0 -57 9 -38 10 -100 15 -178 15 -122 0 -124 0
-309 -60 -16 -5 -17 -3 -6 16 17 34 85 98 122 117 92 48 206 53 294 15z m617
-110 c115 -56 186 -158 195 -281 3 -40 1 -70 -5 -70 -5 0 -28 29 -51 64 -65
99 -176 196 -284 250 -87 42 -91 45 -68 55 41 18 161 7 213 -18z m-273 -228
c60 -159 160 -506 160 -555 0 -16 -10 -18 -80 -18 -44 0 -83 -1 -87 -2 -5 -2
-11 58 -16 132 -4 74 -19 200 -33 280 -15 80 -29 157 -31 173 -4 22 -2 27 15
27 12 0 24 5 27 10 13 20 24 8 45 -47z m283 -739 c168 -43 343 -174 415 -310
11 -21 10 -21 -33 -16 -32 3 -62 -2 -105 -18 l-60 -23 -56 22 c-71 27 -132 27
-195 -1 l-51 -21 -66 22 c-83 26 -106 26 -182 0 l-60 -21 -60 21 c-76 26 -105
26 -181 0 -53 -18 -67 -20 -100 -10 -22 7 -39 18 -39 25 0 22 82 127 140 179
167 150 411 209 633 151z"/>
<path d="M5236 2458 c-54 -12 -104 -52 -127 -102 -17 -37 -19 -69 -19 -311 0
-167 4 -285 11 -310 15 -52 74 -110 126 -124 87 -24 169 11 213 89 23 42 25
55 25 178 0 128 -1 135 -24 153 -33 27 -106 26 -121 -1 -18 -34 -9 -74 18 -78
21 -3 22 -7 22 -102 0 -89 -2 -101 -22 -119 -31 -30 -52 -34 -92 -17 -53 22
-58 51 -54 343 l3 253 27 26 c52 52 138 19 138 -53 0 -52 15 -73 54 -73 47 0
59 19 51 78 -17 122 -115 196 -229 170z"/>
<path d="M5655 2462 c-11 -2 -30 -13 -42 -25 l-23 -20 0 -398 c0 -384 1 -399
19 -409 28 -14 38 -13 61 10 18 18 20 33 20 175 l0 155 38 0 39 0 63 -152 c35
-87 73 -163 87 -175 28 -26 55 -29 72 -9 12 14 -1 55 -54 171 -7 17 -28 66
-45 109 -27 70 -29 81 -15 88 65 37 88 106 83 251 -3 98 -5 108 -33 149 -17
24 -46 50 -65 59 -34 17 -165 30 -205 21z m144 -103 c18 -6 38 -24 46 -40 17
-32 21 -173 5 -213 -12 -33 -59 -56 -115 -56 l-45 0 0 160 0 160 39 0 c21 0
52 -5 70 -11z"/>
<path d="M3472 2448 c-11 -14 -30 -108 -117 -583 -20 -104 -38 -200 -40 -212
-5 -24 17 -53 41 -53 30 0 61 45 69 99 l7 52 86 -3 87 -3 13 -63 c11 -49 19
-66 37 -74 31 -14 65 5 65 36 0 24 -121 677 -141 756 -6 25 -16 48 -22 52 -19
12 -74 9 -85 -4z m82 -436 c15 -78 25 -146 22 -150 -3 -5 -30 -10 -61 -11 -51
-2 -55 -1 -55 21 0 42 53 299 60 291 4 -4 20 -72 34 -151z"/>
<path d="M3723 2443 c-6 -14 11 -112 113 -663 13 -69 28 -135 33 -147 13 -29
45 -37 78 -21 33 16 30 3 147 638 24 131 29 171 27 198 -1 16 -65 16 -80 -1
-11 -14 -63 -267 -107 -520 -12 -72 -17 -54 -90 358 -20 109 -34 159 -48 167
-21 14 -66 9 -73 -9z"/>
<path d="M4170 2445 c-10 -12 -11 -24 -4 -43 8 -24 15 -27 69 -32 l60 -5 5
-373 c4 -317 7 -374 20 -382 23 -15 45 -12 63 8 15 16 17 61 19 383 l3 364 60
5 60 5 0 40 0 40 -171 3 c-146 2 -173 0 -184 -13z"/>
<path d="M4700 2442 c-19 -9 -48 -37 -65 -62 l-30 -45 -3 -285 c-3 -320 1
-344 64 -399 95 -84 251 -50 294 64 8 20 12 129 13 321 l1 291 -28 46 c-17 30
-41 54 -66 67 -49 25 -132 26 -180 2z m150 -110 c19 -23 20 -41 20 -302 0
-274 0 -277 -22 -297 -13 -11 -33 -24 -45 -27 -32 -10 -79 18 -92 55 -15 42
-15 505 0 547 20 59 101 74 139 24z"/>
<path d="M6219 2439 c-9 -18 -25 -97 -94 -469 -8 -41 -25 -133 -38 -205 -14
-71 -22 -135 -20 -142 3 -7 17 -16 31 -20 36 -9 68 31 77 96 l7 51 87 0 88 0
9 -57 c10 -64 44 -101 83 -88 26 8 27 37 6 144 -21 110 -69 363 -100 531 -15
82 -34 153 -43 163 -22 25 -78 23 -93 -4z m84 -417 c15 -81 27 -153 27 -160 0
-8 -20 -12 -60 -12 -71 0 -69 -13 -35 169 14 74 25 138 25 143 0 4 4 8 8 8 4
0 20 -67 35 -148z"/>
<path d="M6591 2434 c-20 -26 -21 -37 -21 -415 0 -339 2 -390 16 -403 19 -20
34 -20 62 0 21 15 22 21 22 173 l0 158 75 5 c93 6 142 35 175 102 19 41 21 58
18 169 -3 112 -5 127 -28 160 -42 61 -82 77 -198 77 -97 0 -101 -1 -121 -26z
m225 -95 c22 -21 24 -30 24 -129 0 -101 -1 -108 -25 -130 -19 -18 -40 -25 -85
-28 l-60 -4 0 154 c0 85 3 158 8 162 15 16 114 -2 138 -25z"/>
<path d="M7046 2444 c-3 -9 -6 -197 -6 -419 0 -389 1 -405 19 -415 28 -14 38
-13 61 10 18 18 20 33 20 175 l0 155 85 0 85 0 0 -158 c0 -144 2 -161 19 -176
20 -19 59 -14 73 8 4 6 8 191 8 412 0 298 -3 403 -12 412 -7 7 -24 12 -38 12
-48 0 -50 -10 -50 -217 l0 -193 -85 0 -85 0 0 186 c0 109 -4 193 -10 205 -13
24 -75 27 -84 3z"/>
</g>
</svg>
